<svg width="300" height="80" viewBox="0 0 300 80" fill="none" xmlns="http://www.w3.org/2000/svg">
  <defs>
    <radialGradient id="vortex-gradient" cx="50%" cy="50%" r="50%" fx="50%" fy="50%">
      <stop offset="0%" stop-color="#003D4D" />
      <stop offset="100%" stop-color="#00C9FF" />
    </radialGradient>
  </defs>

  <g transform="translate(10, 10)">
    <path d="M40 0 C62.09 0 80 17.91 80 40 S62.09 80 40 80 S0 62.09 0 40 S17.91 0 40 0 Z" fill="url(#vortex-gradient)" />
    <path d="M40 10 C56.57 10 70 23.43 70 40 S56.57 70 40 70 S10 56.57 10 40 S23.43 10 40 10 Z" fill="#fff" opacity="0.1"/>
    
    <g fill="none" stroke-width="4" stroke-linecap="round">
      <path d="M60 20 C50 15 30 15 20 20" stroke="#0077B6"/>
      <path d="M20 60 C30 65 50 65 60 60" stroke="#00B4D8"/>
      <path d="M20 20 C15 30 15 50 20 60" stroke="#90E0EF"/>
      <path d="M60 60 C65 50 65 30 60 20" stroke="#CAF0F8"/>
    </g>
  </g>

  <text x="110" y="55" font-family="Poppins, sans-serif" font-size="32" font-weight="600" fill="#1e293b">
    VORTIQ
  </text>
</svg>